<?xml version="1.0" encoding="UTF-8" standalone="no"?>
<svg
   xmlns:dc="http://purl.org/dc/elements/1.1/"
   xmlns:cc="http://creativecommons.org/ns#"
   xmlns:rdf="http://www.w3.org/1999/02/22-rdf-syntax-ns#"
   xmlns:svg="http://www.w3.org/2000/svg"
   xmlns="http://www.w3.org/2000/svg"
   xmlns:sodipodi="http://sodipodi.sourceforge.net/DTD/sodipodi-0.dtd"
   xmlns:inkscape="http://www.inkscape.org/namespaces/inkscape"
   width="11.5in"
   height="11.5in"
   viewBox="0 0 11.5 11.5"
   version="1.1"
   id="svg24"
   inkscape:version="1.0.2-2 (e86c870879, 2021-01-15)"
   sodipodi:docname="logo1.svg">
  <defs
     id="defs18">
    <rect
       x="1.9940476"
       y="1.1309524"
       width="5.7440476"
       height="1.6666667"
       id="rect28" />
  </defs>
  <sodipodi:namedview
     id="base"
     pagecolor="#ffffff"
     bordercolor="#666666"
     borderopacity="1.0"
     inkscape:pageopacity="0.0"
     inkscape:pageshadow="2"
     inkscape:zoom="0.35"
     inkscape:cx="400"
     inkscape:cy="788.57143"
     inkscape:document-units="in"
     inkscape:current-layer="layer1"
     inkscape:document-rotation="0"
     showgrid="false"
     units="in"
     width="11.5in"
     inkscape:window-width="1366"
     inkscape:window-height="715"
     inkscape:window-x="-8"
     inkscape:window-y="-8"
     inkscape:window-maximized="1" />
  <metadata
     id="metadata21">
    <rdf:RDF>
      <cc:Work
         rdf:about="">
        <dc:format>image/svg+xml</dc:format>
        <dc:type
           rdf:resource="http://purl.org/dc/dcmitype/StillImage" />
        <dc:title></dc:title>
      </cc:Work>
    </rdf:RDF>
  </metadata>
  <g
     inkscape:label="Layer 1"
     inkscape:groupmode="layer"
     id="layer1">
    <text
       xml:space="preserve"
       id="text26"
       style="line-height:1.25;font-family:'Cambria Math';font-size:0.41666667px;-inkscape-font-specification:'Cambria Math';white-space:pre;shape-inside:url(#rect28);" />
    <text
       xml:space="preserve"
       style="font-size:0.888889px;line-height:1.25;font-family:'Cambria Math';-inkscape-font-specification:'Cambria Math';white-space:pre;inline-size:6.99911;stroke-width:0.0104167"
       x="1024"
       y="276.742"
       id="text34"
       transform="matrix(1.662964,0,0,1.834441,-3.0297213,1.0737078)" />
    <path
       id="path77"
       style="font-style:normal;font-variant:normal;font-weight:normal;font-stretch:normal;font-size:1.80846px;line-height:1.25;font-family:phenomena;-inkscape-font-specification:phenomena;stroke-width:0.0452115;fill:#d40000"
       d="M 1.9889387,3.272517 C 1.9062077,3.324594 1.8446677,3.358373 1.8042869,3.3738557 v 0.04012 h 0.017721 c 0.058109,0 0.087158,0.047137 0.087158,0.1414389 v 1.0598555 c 0,0.085856 -0.00688,0.1428499 -0.020671,0.1710002 -0.014774,0.02815 -0.043343,0.046446 -0.085693,0.054891 v 0.035889 h 0.2969362 v -0.035889 c -0.041365,-0.00704 -0.068934,-0.02252 -0.082723,-0.046448 -0.018713,-0.032372 -0.028076,-0.092179 -0.028076,-0.1794434 v -0.496155 c 0.060079,-0.123855 0.1191781,-0.1878917 0.1772869,-0.1921184 0.09258,-0.00704 0.1388753,0.085152 0.1388753,0.2765708 v 0.4117026 c 0,0.087264 -0.010343,0.1470708 -0.031026,0.1794434 -0.013789,0.023928 -0.040877,0.039411 -0.081258,0.046448 v 0.035889 h 0.2880861 v -0.035889 c -0.038411,-0.01126 -0.06402,-0.028139 -0.076823,-0.050659 -0.014773,-0.029557 -0.022156,-0.087968 -0.022156,-0.175232 V 4.171911 c 0,-0.1013395 -0.00492,-0.1738363 -0.014771,-0.2174683 -0.022653,-0.098524 -0.070428,-0.1477865 -0.1433107,-0.1477865 -0.068943,0 -0.1418264,0.069684 -0.2186483,0.2090251 l -0.016256,0.029541 z m 1.70339,0 C 3.5977787,3.326002 3.5273556,3.360489 3.4810656,3.3759716 v 0.0401 c 0.018713,-0.00281 0.031997,-0.00421 0.039876,-0.00421 0.060079,0 0.090129,0.054889 0.090129,0.1646729 v 1.0703942 c 0,0.066153 -0.00936,0.1133099 -0.028076,0.1414592 -0.020683,0.026743 -0.053674,0.043622 -0.098979,0.050659 v 0.038005 h 0.3353679 l -2.03e-5,-0.038005 c -0.04629,-0.00422 -0.079281,-0.018289 -0.098979,-0.042216 -0.018713,-0.025335 -0.028056,-0.072492 -0.028056,-0.1414592 z m 0.7563887,0 C 4.354168,3.3260016 4.2837449,3.3604889 4.2374543,3.3759716 v 0.0401 c 0.018713,-0.00281 0.032017,-0.00421 0.039897,-0.00421 0.060079,0 0.090108,0.054889 0.090108,0.1646729 v 1.0703942 c 0,0.066153 -0.00934,0.1133099 -0.028056,0.1414592 -0.020683,0.026743 -0.053674,0.043622 -0.098979,0.050659 v 0.038005 h 0.3353476 v -0.038005 c -0.04629,-0.00422 -0.079281,-0.018289 -0.098979,-0.042216 -0.018713,-0.025335 -0.028076,-0.072492 -0.028076,-0.1414592 z m 0.8923138,0 c -0.1644775,0 -0.2467042,0.1161122 -0.2467042,0.3483481 V 3.8172152 H 4.9628369 v 0.071777 H 5.094327 v 0.7220461 c 0,0.092894 -0.00936,0.1541179 -0.028076,0.1836752 -0.017728,0.028152 -0.0527,0.043635 -0.1048991,0.046448 v 0.035889 h 0.366394 V 4.8411617 C 5.2637274,4.8369397 5.2223538,4.8172467 5.203641,4.7820593 5.187883,4.752502 5.1800001,4.6954882 5.1800001,4.6110387 V 3.8889926 H 5.3676222 V 3.8172152 H 5.1785353 V 3.5512036 c 0,-0.076004 0.0059,-0.1294961 0.017721,-0.1604614 0.014773,-0.042225 0.045303,-0.063334 0.091594,-0.063334 0.024623,0 0.049751,0.023235 0.075358,0.069682 0.028562,0.050665 0.051689,0.07811 0.069417,0.082337 0.029547,0.00704 0.044332,-0.018302 0.044332,-0.076009 -4e-7,-0.035188 -0.013305,-0.066153 -0.039897,-0.092896 -0.025607,-0.025335 -0.057618,-0.038004 -0.096029,-0.038004 z m 0.6204836,0 C 5.8669648,3.326002 5.7965417,3.360489 5.7502517,3.3759716 v 0.0401 c 0.018713,-0.00281 0.032017,-0.00421 0.039897,-0.00421 0.060079,0 0.090108,0.054889 0.090108,0.1646729 v 1.0703942 c 0,0.066153 -0.00934,0.1133099 -0.028056,0.1414592 -0.020683,0.026743 -0.053674,0.043622 -0.098979,0.050659 v 0.038005 H 6.0885698 V 4.8390458 C 6.042279,4.8348232 6.0092884,4.8207571 5.989591,4.7968298 5.9708784,4.7714952 5.9615148,4.7243379 5.9615148,4.6553706 Z m -3.081727,0.012675 c -0.018713,0 -0.032997,0.010545 -0.042847,0.031657 -0.00985,0.02252 -0.014771,0.04363 -0.014771,0.063334 0,0.02252 0.00442,0.04365 0.013285,0.063354 0.010834,0.023927 0.025619,0.035889 0.044332,0.035889 0.040381,0 0.060567,-0.033091 0.060567,-0.099243 0,-0.025335 -0.0059,-0.047841 -0.01772,-0.067546 C 2.9108148,3.29434 2.8965308,3.285191 2.8797868,3.285191 Z m 3.7820039,0 c -0.018713,0 -0.032997,0.010545 -0.042847,0.031657 -0.00985,0.02252 -0.014771,0.04363 -0.014771,0.063334 0,0.02252 0.00442,0.04365 0.013285,0.063354 0.010833,0.023927 0.025598,0.035889 0.044312,0.035889 0.040381,0 0.060588,-0.033091 0.060588,-0.099243 0,-0.025335 -0.00592,-0.047841 -0.017741,-0.067546 C 6.6927987,3.29434 6.6785347,3.285191 6.6617917,3.285192 Z m 1.1493534,0.0401 v 0.042236 c 0.016743,0 0.033489,0.015483 0.050232,0.046448 0.00394,0.00985 0.013802,0.036589 0.029561,0.080221 v 1.0176191 c 0,0.1055617 -0.00148,0.1695984 -0.00444,0.1921184 -0.00886,0.077412 -0.033993,0.1210474 -0.075358,0.1309001 v 0.042216 H 8.0519696 V 4.8348344 C 8.0076489,4.8277964 7.977599,4.8031659 7.961841,4.7609412 7.946083,4.7187165 7.9382,4.6356751 7.9382,4.5118159 V 3.5828605 h 0.011821 l 0.5362753,1.3153081 h 0.00295 V 3.6609855 c 0,-0.1308963 0.00542,-0.2132293 0.016256,-0.2470094 0.0069,-0.021113 0.027582,-0.036595 0.062052,-0.046448 V 3.3252921 H 8.3282148 v 0.042236 c 0.045305,0.00704 0.074855,0.023229 0.088643,0.048564 0.017728,0.038002 0.026591,0.1196267 0.026591,0.2448934 V 4.5054886 L 7.9544558,3.3252921 Z M 1.436428,3.7940016 c -0.085686,0 -0.1590702,0.047845 -0.2201336,0.1435547 -0.067958,0.1083767 -0.1019287,0.2533499 -0.1019287,0.4349163 0,0.1703063 0.02955,0.3033182 0.088643,0.3990276 0.05023,0.081634 0.1093087,0.1224569 0.1772665,0.1224569 0.1181875,0 0.2127384,-0.1189456 0.2836509,-0.3568116 l -0.02362,-0.012675 C 1.6097745,4.5976607 1.5836656,4.649048 1.5619977,4.6786047 1.5294958,4.72083 1.4896027,4.7454606 1.442328,4.7524979 1.37437,4.7623502 1.315771,4.7250496 1.2665263,4.6406001 1.2143271,4.5519282 1.1882386,4.4308777 1.1882386,4.2774612 c 0,-0.1449716 0.029529,-0.2561657 0.088623,-0.3335776 0.041366,-0.053479 0.08472,-0.080923 0.1300252,-0.082336 0.070912,-0.00282 0.1117857,0.028859 0.1226197,0.095011 l 0.00885,0.052775 c 0.013789,0.074597 0.033975,0.1083761 0.060567,0.1013388 0.030531,-0.00704 0.045797,-0.036587 0.045797,-0.088664 0,-0.057708 -0.020187,-0.1104916 -0.060567,-0.1583455 -0.040381,-0.046447 -0.089617,-0.069662 -0.1477255,-0.069661 z m 7.5048852,0 c -0.090611,0 -0.1654551,0.05418 -0.2245484,0.1625569 -0.055154,0.1041544 -0.082723,0.2315397 -0.082723,0.3821413 0,0.1590465 0.029049,0.29135 0.087158,0.3969118 0.060078,0.1055618 0.1349227,0.1583455 0.2245484,0.1583455 0.1014444,0 0.1812306,-0.057014 0.2393392,-0.1710205 0.05023,-0.1027468 0.075338,-0.2308203 0.075338,-0.3842368 -1e-6,-0.1674914 -0.02905,-0.3005033 -0.087158,-0.3990277 C 9.1131883,3.8425552 9.0358631,3.7940016 8.9413132,3.7940016 Z M 2.934455,3.8130038 c -0.09061,0.057707 -0.1590731,0.097113 -0.2053631,0.1182251 v 0.038005 c 0.020683,-0.00704 0.036928,-0.010559 0.048747,-0.010559 0.05023,0 0.075358,0.05418 0.075358,0.1625571 v 0.494039 c 0,0.091486 -0.010343,0.1527098 -0.031026,0.1836753 -0.017728,0.025336 -0.051719,0.039403 -0.1019491,0.042216 v 0.035889 h 0.3383176 v -0.03589 C 3.0083094,4.8355323 2.9753188,4.8172361 2.9595607,4.7862707 2.9428174,4.7538984 2.934455,4.696905 2.934455,4.6152705 Z m 3.7819836,0 c -0.09061,0.057707 -0.1590527,0.097113 -0.2053427,0.1182251 v 0.038005 c 0.020683,-0.00704 0.036928,-0.010559 0.048747,-0.010559 0.05023,0 0.075338,0.05418 0.075338,0.1625571 v 0.494039 c 0,0.091486 -0.010323,0.1527098 -0.031006,0.1836753 -0.017728,0.025336 -0.051719,0.039403 -0.1019491,0.042216 v 0.035889 h 0.338318 v -0.035889 c -0.05023,-0.00563 -0.083221,-0.023926 -0.098979,-0.054891 -0.016743,-0.032372 -0.025126,-0.089366 -0.025126,-0.1710002 z m 2.6075244,0.0021 v 0.033793 c 0.013784,0.00563 0.023628,0.016174 0.029541,0.031657 0.00788,0.014075 0.016742,0.049271 0.026591,0.1055705 L 9.5307909,4.801066 c 0.012799,0.052077 0.022144,0.087253 0.028056,0.1055501 0.014773,-0.038002 0.025115,-0.072489 0.031026,-0.1034546 L 9.7080574,4.201452 9.8292122,4.8116003 c 0.00987,0.042225 0.017249,0.073899 0.022156,0.095011 0.014791,-0.04504 0.024634,-0.081632 0.029541,-0.1097819 L 10.03899,3.9607903 c 0.01182,-0.060522 0.0256,-0.096426 0.04136,-0.1076864 V 3.8150994 H 9.9429614 v 0.035889 c 0.030533,0.00704 0.045797,0.031668 0.045797,0.073893 0,0.03378 -0.0069,0.087272 -0.020691,0.1604615 L 9.8690885,4.6406001 9.7686246,4.1254632 c -0.011819,-0.060522 -0.019202,-0.1168273 -0.022156,-0.1689047 -0.00197,-0.032373 0.00493,-0.057003 0.020691,-0.073893 0.00887,-0.011261 0.026592,-0.022513 0.053182,-0.033773 V 3.8150994 H 9.5869229 v 0.033793 c 0.027577,0.00844 0.044321,0.019698 0.050232,0.033773 0.01083,0.026743 0.026598,0.1055537 0.047282,0.2364503 L 9.5810229,4.6596024 C 9.5770842,4.6398975 9.5485148,4.4885894 9.4953294,4.2056838 9.4677521,4.0677499 9.4539679,3.9818954 9.4539679,3.9481154 c 0,-0.047855 0.019688,-0.080926 0.059082,-0.099223 v -0.033793 z m -2.2101041,0.00421 v 0.033793 c 0.034471,-0.0014 0.057118,7.007e-4 0.067953,0.00633 0.022653,0.014075 0.04382,0.047166 0.063517,0.099243 L 7.3753338,4.307028 7.195097,4.733501 C 7.1754,4.781356 7.160635,4.810196 7.150785,4.820049 7.138966,4.831311 7.1232,4.838354 7.103503,4.841167 V 4.877056 H 7.2970456 V 4.841167 c -0.038409,-0.00563 -0.058116,-0.02251 -0.059102,-0.050659 0,-0.025335 0.00738,-0.056301 0.022156,-0.092896 l 0.1373902,-0.3272503 0.1196697,0.320923 c 0.016743,0.040817 0.025126,0.071763 0.025126,0.092875 0,0.032375 -0.018726,0.05138 -0.056152,0.057007 v 0.035889 H 7.759449 V 4.8411667 C 7.740736,4.8383567 7.72153,4.8362567 7.701832,4.8348367 7.674255,4.8221697 7.650128,4.7883897 7.629444,4.7334979 L 7.4492065,4.2521315 7.5851116,3.9291131 c 0.014773,-0.033779 0.029558,-0.054889 0.044332,-0.063334 0.00689,-0.00422 0.028561,-0.00845 0.065002,-0.012675 v -0.033773 h -0.212748 v 0.033773 c 0.014773,0.00281 0.029559,0.00633 0.044332,0.010559 0.015757,0.00704 0.022159,0.019707 0.019206,0.038004 -0.041366,0.1069694 -0.080758,0.20266 -0.1181844,0.2871095 -0.060077,-0.1604541 -0.090607,-0.2505184 -0.091594,-0.270223 -9.846e-4,-0.025335 0.0059,-0.043631 0.020671,-0.054891 0.00591,-0.00422 0.019694,-0.00775 0.041362,-0.010559 v -0.033793 z m 1.817119,0.042236 c 0.069926,0 0.1265649,0.050679 0.1699016,0.1520183 0.044317,0.1027424 0.066465,0.2329547 0.066467,0.3905844 -2.2e-6,0.1576282 -0.024612,0.2723373 -0.073853,0.3441164 -0.033487,0.05067 -0.07534,0.076009 -0.1255697,0.076009 -0.081745,0 -0.1442854,-0.068267 -0.1876221,-0.2047934 -0.035442,-0.1111918 -0.052185,-0.2442036 -0.050232,-0.3990276 9.867e-4,-0.1196372 0.022652,-0.2118267 0.065002,-0.2765707 0.035456,-0.054892 0.080751,-0.082336 0.135905,-0.082336 z" />
  </g>
</svg>
